<?xml version="1.0" encoding="UTF-8" standalone="no"?>
<!-- Created with Inkscape (http://www.inkscape.org/) -->

<svg
   width="37.324806mm"
   height="24.418711mm"
   viewBox="0 0 37.324806 24.418711"
   version="1.1"
   id="svg5"
   xmlns="http://www.w3.org/2000/svg"
   xmlns:svg="http://www.w3.org/2000/svg">
  <defs
     id="defs2">
    <clipPath
       clipPathUnits="userSpaceOnUse"
       id="clipPath1032">
      <path
         id="path1034"
         style="fill:#ff0000;fill-opacity:1;fill-rule:nonzero;stroke:none;stroke-width:0.264592"
         d="m 19.998347,154.59344 -5.551725,8.07328 10.707244,7.29689 4.27162,-6.21177 c -0.02374,-0.041 -0.02032,-0.10816 0.03354,-0.18212 0.04463,-0.0612 0.08112,-0.12823 0.119741,-0.19317 0.01799,-0.0317 0.0343,-0.0639 0.05019,-0.0966 -0.01847,-0.039 -0.01426,-0.0972 0.03134,-0.1635 0.03954,-0.0575 0.0791,-0.11504 0.118647,-0.17254 l 0.0044,-0.006 c 0.0062,-0.0147 0.01239,-0.0293 0.01843,-0.044 0.03355,-0.0869 0.07221,-0.17155 0.109282,-0.25689 0.03126,-0.075 0.06805,-0.14744 0.108149,-0.21804 0.03109,-0.054 0.06433,-0.10721 0.09877,-0.15905 0.03404,-0.0523 0.06914,-0.1038 0.104249,-0.15532 0.03234,-0.0474 0.065,-0.0945 0.09745,-0.14171 0.03056,-0.0477 0.06577,-0.0924 0.09453,-0.14118 0.01688,-0.0315 0.03472,-0.0627 0.05301,-0.0934 z" />
    </clipPath>
  </defs>
  <g
     id="layer1"
     transform="translate(-79.693206,-115.26066)">
    <path
       id="path903"
       style="fill:#000000;stroke-width:0.264583"
       transform="matrix(-0.38527318,-0.85819075,3.5785566,-0.50362914,-297.37177,252.25288)"
       d="m 86.22552,125.08067 3.947631,-6.78633 -6.786173,-3.94753 -3.947551,6.78619 z" />
    <rect
       style="fill:#000000;stroke-width:1.39701"
       id="rect909"
       width="2.75"
       height="14.45"
       x="79.696999"
       y="125.2149" />
    <rect
       style="fill:#000000;stroke-width:1.39702"
       id="rect909-5"
       width="2.75"
       height="14.45"
       x="103.19073"
       y="125.22937" />
    <rect
       style="fill:#000000;stroke-width:1.39702"
       id="rect909-5-2"
       width="2.75"
       height="14.45"
       x="114.26801"
       y="117.81833" />
    <rect
       style="fill:#000000;stroke-width:1.39702"
       id="rect909-5-2-3"
       width="2.75"
       height="14.45"
       x="91.147003"
       y="115.318" />
    <rect
       style="fill:#000000;stroke-width:0.96448"
       id="rect911"
       width="25.78624"
       height="2.5345302"
       x="79.525169"
       y="123.20781"
       transform="rotate(-0.07817691)" />
    <path
       id="rect911-6"
       clip-path="url(#clipPath1032)"
       style="fill:#000000;stroke-width:0.567788"
       transform="matrix(0.8284298,-0.56009291,0.56968318,0.82186439,0,0)"
       d="m 30.057908,161.65203 c -4.72e-4,2.1e-4 -8.36e-4,7.7e-4 -0.0013,9.9e-4 l 0.0014,-2.7e-4 z m -0.0013,9.9e-4 -14.912811,-1.2e-4 2.54e-4,1.48911 13.794002,-2.7e-4 c 1.59e-4,-0.0352 0.01062,-0.0757 0.03442,-0.1199 0.01153,-0.0216 0.02457,-0.0418 0.04164,-0.0597 0.01737,-0.0174 0.03557,-0.0339 0.0566,-0.0469 l 2.95e-4,-4.3e-4 c 0.02928,-0.0186 0.05683,-0.0311 0.08226,-0.0389 0.002,-0.002 0.0038,-0.005 0.0059,-0.007 0.01386,-0.0149 0.02647,-0.0309 0.03869,-0.0472 0.01775,-0.0248 0.03523,-0.0498 0.05267,-0.0748 0.02014,-0.0289 0.04023,-0.0576 0.06019,-0.0866 0.02081,-0.0302 0.04162,-0.0605 0.06242,-0.0908 l 0.0633,-0.0921 0.05299,-0.0771 0.04446,-0.0647 0.04505,-0.0655 0.04092,-0.0595 0.0421,-0.0612 0.04858,-0.0706 0.05093,-0.0741 c 0.01547,-0.0242 0.03325,-0.0464 0.05113,-0.0689 0.0125,-0.0164 0.02559,-0.0326 0.03886,-0.0483 0.01287,-0.0152 0.02468,-0.0314 0.03641,-0.0475 0.01277,-0.0177 0.02547,-0.0355 0.03795,-0.0534 0.0094,-0.0135 0.01861,-0.0271 0.02797,-0.0407 0.03264,-0.0473 0.06831,-0.0772 0.102881,-0.0934 z" />
    <path
       id="rect1036"
       style="fill:#000000;stroke-width:1.60056"
       d="m 117.01456,115.26066 -0.13332,0.001 v 1.71359 c 0.022,0.006 0.0441,0.0105 0.0661,0.0155 v -0.0357 -0.078 -0.0791 -0.0718 -0.0739 -0.0853 -0.0894 c -10e-4,-0.0286 0.001,-0.0568 0.003,-0.0853 0.001,-0.0205 0.003,-0.0411 0.005,-0.0615 0.002,-0.0197 0.003,-0.0396 0.003,-0.0594 5e-4,-0.0217 8.9e-4,-0.0434 10e-4,-0.0651 9e-5,-0.0164 -2e-5,-0.0327 0,-0.0491 9e-5,-0.063 0.0153,-0.11098 0.0382,-0.14418 2.7e-4,-0.005 6.2e-4,-0.0111 0.002,-0.0165 0.001,-0.005 0.003,-0.0115 0.004,-0.0165 1.8e-4,-8e-4 2.6e-4,-0.002 5.2e-4,-0.003 9e-5,-7.4e-4 -9e-5,-0.002 0,-0.003 l -0.002,0.003 c 0.002,-0.0194 0.007,-0.0356 0.0134,-0.0486 z m -0.13332,1.85312 v 0.19431 c 0.006,-0.039 0.0129,-0.0779 0.0202,-0.11679 0.005,-0.0297 0.0161,-0.0517 0.0295,-0.0661 -0.0166,-0.004 -0.0331,-0.007 -0.0496,-0.0114 z" />
    <rect
       style="fill:#000000;stroke-width:7.19151"
       id="rect1267"
       width="1.1594923"
       height="2.5420926"
       x="115.85529"
       y="115.262" />
    <rect
       style="fill:#000000;stroke-width:0.375433"
       id="rect1269"
       width="0.23222896"
       height="0.06727349"
       x="30.887806"
       y="162.90373"
       transform="matrix(0.83130925,-0.55581016,0.55926087,0.82899172,0,0)" />
    <rect
       style="fill:#000000;stroke-width:0.264583"
       id="rect1271"
       width="0.028938802"
       height="0.02997233"
       x="116.86729"
       y="117.78815" />
    <rect
       style="fill:#000000;stroke-width:0.251139"
       id="rect1273"
       width="13.011474"
       height="0.79064697"
       x="17.046408"
       y="160.76854"
       transform="matrix(0.83218102,-0.55450406,0.56474887,0.82526281,0,0)" />
  </g>
</svg>
